<?xml version="1.0" encoding="utf-8"?>
<!-- Generator: Adobe Illustrator 16.0.0, SVG Export Plug-In . SVG Version: 6.00 Build 0)  -->
<!DOCTYPE svg PUBLIC "-//W3C//DTD SVG 1.1//EN" "http://www.w3.org/Graphics/SVG/1.1/DTD/svg11.dtd">
<svg version="1.1" id="Layer_1" xmlns="http://www.w3.org/2000/svg" xmlns:xlink="http://www.w3.org/1999/xlink" x="0px" y="0px"
	 width="312.5px" height="308px" viewBox="0 0 312.5 308" enable-background="new 0 0 312.5 308" xml:space="preserve">
<g>
	<g>
		<g>
			<path fill="#293B6B" d="M99.364,235.66c-3.66,2.705-8.151,4.732-13.477,6.082c-5.33,1.349-10.935,2.027-16.816,2.027
				c-15.266,0-27.072-3.895-35.42-11.688c-8.348-7.789-12.522-19.238-12.522-34.348v-52.713H1.331v-28.623h19.797V85.152h37.209
				v31.247H90.3v28.623H58.338v52.236c0,5.407,1.39,9.582,4.174,12.522c2.78,2.944,6.716,4.412,11.807,4.412
				c5.881,0,10.89-1.587,15.027-4.771L99.364,235.66z"/>
		</g>
		<polygon fill="#C2D3E7" points="180.66,236.466 165.235,164.664 149.288,236.466 105.947,236.466 65.858,116.013 101.88,116.013 
			127.72,201.605 144.338,116.512 186.646,116.345 203.614,203.518 265.511,116.345 308.562,116.345 222.81,236.466 		"/>
		<g>
			<g opacity="0.4">
				<g>
					<defs>
						<rect id="SVGID_1_" x="242.151" y="143.898" width="38.702" height="14.839"/>
					</defs>
					<clipPath id="SVGID_2_">
						<use xlink:href="#SVGID_1_"  overflow="visible"/>
					</clipPath>
					<path clip-path="url(#SVGID_2_)" fill="#909DA7" d="M246.506,143.941c0,0,18.431-1.328,34.349,10.734l-2.557,4.062
						c0,0-27.559-12.378-36.146-9.494"/>
				</g>
			</g>
			<g opacity="0.4">
				<g>
					<defs>
						<rect id="SVGID_3_" x="189.735" y="219.29" width="36.971" height="17.176"/>
					</defs>
					<clipPath id="SVGID_4_">
						<use xlink:href="#SVGID_3_"  overflow="visible"/>
					</clipPath>
					<path clip-path="url(#SVGID_4_)" fill="#909DA7" d="M192.386,219.29l-2.65,4.394c0,0,12.183,9.464,33.074,12.782l3.896-4.732
						L192.386,219.29z"/>
				</g>
			</g>
		</g>
		<polygon fill="#293B6B" points="294.807,128.915 298.188,130.875 280.854,154.675 284.503,131.578 		"/>
		<g>
			<path fill="#293B6B" d="M280.854,154.675c0,0,2.903,1.351,4.543,2.692l17.144-23.553c0,0-3.527-2.461-4.353-2.939l-16.518,9.796
				L280.854,154.675z"/>
			<g>
				<path fill="#E91D35" d="M62.858,83.162c0,13.012-10.548,23.561-23.56,23.561c-13.012,0-23.561-10.549-23.561-23.561
					s10.549-23.56,23.561-23.56C52.31,59.602,62.858,70.149,62.858,83.162"/>
				<path fill="#FFFFFF" d="M39.298,107.323c-13.322,0-24.161-10.839-24.161-24.161c0-13.322,10.839-24.16,24.161-24.16
					c13.322,0,24.16,10.838,24.16,24.16C63.458,96.484,52.62,107.323,39.298,107.323z M39.298,60.202
					c-12.661,0-22.961,10.3-22.961,22.96c0,12.661,10.3,22.961,22.961,22.961c12.66,0,22.96-10.3,22.96-22.961
					C62.258,70.501,51.958,60.202,39.298,60.202z"/>
			</g>
			<path fill="#293B6B" d="M249.727,236.464c-9.875,0-19.465-1.396-28.766-4.186c-9.305-2.791-20.418-7.118-28.575-12.988
				l17.627-24.687c6.725,4.438,13.558,7.766,20.501,9.982c6.939,2.22,13.416,3.328,19.427,3.328c6.871,0,10.306-2.074,10.306-6.228
				v-0.428c0-2.289-1.577-4.079-4.723-5.367c-3.15-1.288-7.803-2.792-13.954-4.509c-5.726-1.428-11.092-3.112-16.101-5.044
				c-5.011-1.933-9.375-4.293-13.095-7.084c-3.723-2.791-6.654-6.189-8.802-10.197c-2.146-4.005-3.219-8.942-3.219-14.812v-0.429
				c0-6.152,1.18-11.626,3.541-16.423c2.361-4.793,5.615-8.802,9.768-12.022c4.149-3.219,9.05-5.688,14.705-7.406
				c5.651-1.717,11.841-2.575,18.568-2.575c8.588,0,17.03,1.179,25.332,3.542c8.298,2.36,15.813,5.688,22.539,9.982l-13.952,25.76
				c-6.011-3.291-12.097-5.904-18.248-7.836c-6.154-1.931-11.521-2.898-16.101-2.898c-3.148,0-5.511,0.537-7.083,1.611
				c-1.577,1.073-2.362,2.398-2.362,3.97v0.43c0,2.291,1.611,4.116,4.83,5.474c3.221,1.363,7.907,2.972,14.061,4.83
				c5.724,1.577,11.091,3.327,16.101,5.259c5.008,1.932,9.372,4.295,13.096,7.085c3.72,2.791,6.654,6.191,8.801,10.197
				c2.146,4.008,3.221,8.801,3.221,14.383v0.43c0,6.439-1.147,12.059-3.435,16.851c-2.291,4.797-5.511,8.839-9.661,12.129
				c-4.151,3.295-9.159,5.763-15.026,7.406C263.177,235.64,256.736,236.464,249.727,236.464"/>
			<polygon fill="#BDD4EE" points="217.621,183.621 242.151,149.243 274.289,164.352 249.202,199.495 			"/>
		</g>
	</g>
</g>
</svg>
